<?xml version="1.0" standalone="no"?>
<!DOCTYPE svg PUBLIC "-//W3C//DTD SVG 20010904//EN"
 "http://www.w3.org/TR/2001/REC-SVG-20010904/DTD/svg10.dtd">
<svg version="1.0" xmlns="http://www.w3.org/2000/svg"
 width="500.000000pt" height="500.000000pt" viewBox="0 0 500.000000 500.000000"
 preserveAspectRatio="xMidYMid meet">

<g transform="translate(0.000000,500.000000) scale(0.100000,-0.100000)"
fill="#000000" stroke="none">
<path d="M1206 4488 c-2 -7 -13 -49 -24 -93 -11 -44 -36 -125 -56 -180 -38
-106 -46 -184 -25 -243 8 -24 7 -43 -5 -86 -20 -68 -20 -112 -1 -166 8 -23 15
-62 15 -85 0 -26 7 -51 19 -66 10 -13 28 -43 40 -66 12 -24 26 -43 31 -43 21
0 9 47 -26 103 -26 42 -34 65 -30 82 4 14 -3 50 -15 85 -14 42 -19 73 -15 98
3 20 10 96 15 167 8 109 16 150 48 250 l39 120 7 -186 c9 -234 29 -423 62
-586 49 -240 79 -319 178 -467 70 -104 106 -193 116 -286 5 -46 9 -55 26 -55
16 0 23 -12 36 -65 16 -68 58 -173 89 -225 9 -16 20 -57 23 -91 4 -33 9 -69
13 -79 5 -13 3 -16 -7 -13 -24 8 -119 251 -175 445 -4 16 -34 5 -34 -13 0 -7
-17 -18 -37 -23 -55 -16 -57 -14 -20 19 19 17 40 30 47 30 10 0 10 3 1 14 -26
31 -105 48 -256 56 -131 7 -157 11 -205 34 -34 16 -73 26 -100 26 -94 0 -159
29 -465 203 -188 108 -365 230 -352 243 5 5 826 -300 1002 -373 61 -25 170
-72 243 -105 127 -57 175 -70 118 -33 -14 10 -26 25 -26 34 0 9 -9 36 -20 61
l-20 45 27 -30 c16 -17 38 -44 50 -60 15 -20 22 -25 23 -14 0 31 -99 169 -193
267 -109 113 -127 144 -134 224 -5 47 -9 58 -24 58 -39 0 -36 -91 7 -169 30
-55 30 -57 -6 -31 -52 37 -149 76 -378 150 l-223 72 -36 -17 c-30 -14 -40 -15
-56 -5 -33 20 -42 -4 -11 -29 31 -25 56 -27 87 -6 21 13 32 11 127 -21 58 -20
113 -43 123 -51 9 -9 20 -14 23 -10 15 15 74 -23 137 -87 63 -65 177 -207 177
-220 0 -3 -21 2 -47 12 -42 15 -55 29 -113 112 -36 51 -85 114 -109 139 l-43
46 34 -45 c55 -71 139 -200 132 -200 -4 0 -165 62 -358 139 -193 76 -372 146
-399 156 -26 10 -47 20 -47 24 0 9 145 51 178 51 77 0 82 26 6 29 -76 2 -257
-54 -290 -90 -19 -21 -18 -22 35 -71 54 -49 165 -128 231 -164 l35 -19 -104
-5 -103 -5 -52 -56 c-29 -31 -65 -64 -79 -74 -15 -9 -27 -23 -27 -30 0 -13 13
-17 95 -31 52 -9 88 -27 155 -79 85 -65 252 -144 181 -84 -13 11 -22 21 -20
23 7 6 93 35 153 51 33 9 86 30 119 46 95 48 102 30 10 -26 -44 -28 -96 -58
-113 -68 -18 -10 -30 -20 -27 -23 6 -6 173 76 228 113 21 13 48 23 61 21 18
-2 7 -12 -55 -46 -42 -23 -104 -60 -138 -81 -56 -35 -64 -38 -95 -28 -40 12
-57 1 -29 -19 46 -34 125 -47 250 -41 86 4 139 2 185 -8 139 -30 367 -14 492
36 36 14 50 16 52 6 20 -67 58 -162 105 -257 30 -63 57 -118 59 -122 2 -5 -30
-8 -70 -8 -194 0 -373 -66 -544 -201 -97 -77 -144 -149 -144 -221 0 -24 5 -50
10 -58 7 -11 10 0 10 38 0 32 8 68 19 90 42 81 184 184 337 243 127 49 239 67
384 61 l55 -2 37 -76 c23 -48 31 -73 22 -70 -32 12 -122 35 -161 40 -64 9 -52
-9 15 -23 101 -20 189 -60 219 -100 15 -20 48 -58 73 -85 l45 -48 -40 17
c-126 54 -325 113 -325 96 0 -3 42 -19 93 -34 104 -32 271 -113 376 -182 62
-41 91 -65 78 -65 -2 0 -44 20 -93 45 -161 80 -416 153 -599 171 -97 9 -79 -1
35 -20 52 -9 151 -32 220 -52 122 -35 275 -92 267 -100 -2 -3 -42 4 -88 15
-178 41 -340 56 -609 56 -176 0 -263 -4 -280 -12 -20 -10 -5 -11 80 -5 338 23
618 -9 945 -109 173 -53 142 -63 -87 -29 -157 24 -345 36 -412 26 -26 -4 -46
-10 -43 -12 2 -3 56 -7 118 -8 63 -2 179 -14 259 -25 218 -32 219 -32 125 -47
-44 -7 -115 -16 -157 -20 -82 -7 -108 -24 -35 -24 23 0 105 7 182 15 168 17
155 17 155 6 0 -5 -37 -20 -82 -34 -92 -29 -266 -111 -333 -157 -24 -17 -52
-30 -62 -30 -71 0 -360 104 -473 170 -79 46 -160 123 -197 188 -33 58 -32 57
-39 50 -20 -21 141 -264 227 -341 98 -89 267 -167 361 -167 l38 0 -31 -50
c-69 -113 -94 -244 -62 -335 11 -31 25 -51 36 -53 17 -3 18 2 10 60 -22 176
12 277 139 407 71 71 154 130 263 184 84 42 193 83 199 76 1 -2 7 -16 13 -30
26 -61 -101 -234 -254 -347 -35 -26 -59 -48 -54 -50 17 -6 177 116 239 182 32
35 66 80 76 101 l18 37 30 -29 c39 -39 35 -46 -87 -159 -91 -83 -242 -260
-232 -270 3 -3 32 28 66 70 58 71 251 259 259 252 5 -5 -70 -126 -145 -233
-176 -255 -241 -372 -273 -500 -28 -109 -24 -134 6 -34 36 123 113 264 240
442 62 86 127 178 144 205 18 27 30 42 27 33 -23 -73 -51 -173 -77 -279 -40
-165 -39 -160 -32 -160 4 0 15 28 25 63 10 34 48 160 84 279 l66 218 19 -30
c14 -24 18 -51 18 -128 0 -158 -37 -287 -107 -379 -18 -24 -33 -46 -33 -49 0
-15 37 26 72 80 57 88 79 170 87 314 6 115 7 122 24 110 10 -8 25 -46 37 -94
24 -100 70 -236 111 -325 l31 -68 -23 -38 c-33 -53 -132 -169 -182 -213 -64
-57 -168 -120 -316 -195 -157 -78 -180 -80 -243 -18 -40 39 -185 317 -209 401
-7 23 -15 42 -20 42 -23 0 50 -215 118 -348 60 -118 91 -156 142 -178 52 -22
73 -18 196 41 269 129 424 256 512 421 l29 55 43 -51 c83 -98 277 -209 466
-266 77 -23 109 -27 220 -28 123 -1 235 15 235 34 0 4 -21 3 -47 -2 -66 -12
-221 -11 -294 2 -143 26 -369 125 -475 208 -70 55 -134 141 -172 234 -34 80
-112 333 -112 360 0 35 31 5 66 -63 43 -87 166 -268 246 -365 59 -72 168 -165
191 -163 7 0 4 6 -7 12 -92 58 -174 147 -273 297 -70 107 -156 271 -146 280 4
4 24 10 43 14 l35 6 40 -77 c45 -87 123 -200 197 -286 57 -66 88 -78 36 -14
-65 80 -146 202 -197 299 l-52 96 41 7 c23 4 43 5 45 3 3 -2 17 -29 33 -59 61
-116 126 -221 130 -210 2 6 -21 55 -52 109 -119 209 -110 243 22 84 193 -232
562 -607 570 -581 2 5 -63 78 -145 162 -154 158 -493 539 -493 554 1 4 16 25
34 46 l33 37 64 -47 c151 -114 323 -305 420 -466 18 -32 37 -57 42 -57 10 0
11 -1 -31 75 -78 145 -316 413 -439 495 -31 21 -53 43 -53 53 0 25 16 19 183
-65 141 -72 281 -167 311 -213 16 -24 36 -34 36 -17 0 19 -120 127 -199 180
-48 32 -141 84 -208 116 l-121 59 16 36 c9 20 17 38 19 39 3 6 180 -36 253
-60 210 -67 296 -168 374 -435 107 -363 128 -453 124 -518 -3 -47 -11 -73 -31
-104 -34 -50 -34 -61 -3 -32 40 37 56 83 56 155 0 78 -64 377 -115 543 -19 61
-35 114 -35 117 0 5 45 -17 232 -116 54 -29 58 -33 83 -101 15 -40 40 -126 56
-192 74 -298 129 -400 263 -487 60 -39 213 -94 238 -86 7 3 -21 15 -62 27
-188 57 -269 132 -341 313 -22 56 -92 358 -85 366 3 2 14 -29 26 -69 62 -212
82 -268 110 -313 42 -65 47 -53 10 20 -17 32 -37 91 -46 129 -45 195 -56 234
-78 278 -18 38 -20 44 -6 32 25 -22 72 -114 124 -238 51 -125 134 -253 208
-323 94 -89 103 -79 11 13 -106 106 -140 162 -205 335 -27 73 -55 143 -64 155
-8 13 -12 23 -10 23 3 0 33 -20 68 -44 35 -23 94 -60 132 -81 119 -66 260
-216 312 -331 12 -28 27 -77 33 -109 15 -78 1 -125 -46 -164 -20 -17 -34 -34
-29 -38 14 -15 61 23 84 67 20 38 23 55 18 106 -10 116 -64 218 -181 343 l-65
69 82 -25 c134 -39 298 -70 516 -96 59 -7 34 18 -79 78 -61 32 -161 90 -222
128 -264 165 -443 239 -628 258 -57 5 -118 8 -136 4 -24 -4 -46 2 -95 29 -34
19 -94 47 -131 61 -92 34 -155 67 -139 72 7 3 85 -30 173 -72 89 -42 166 -74
171 -73 18 6 -234 148 -294 166 -32 9 -58 19 -58 22 0 3 26 27 58 54 95 80
159 163 217 281 29 61 63 141 74 179 24 78 24 76 13 76 -5 0 -14 -23 -22 -52
-7 -29 -28 -81 -46 -116 -56 -107 -114 -162 -254 -241 -41 -24 -89 -54 -107
-67 l-32 -24 -63 34 c-69 37 -137 61 -303 105 l-110 29 73 1 c41 1 72 5 72 11
0 6 -26 10 -57 10 -32 0 -68 3 -80 6 -39 11 -25 24 25 24 91 0 345 51 358 72
4 6 -4 8 -22 4 -76 -15 -157 -25 -239 -30 -75 -4 -84 -3 -55 6 192 61 487 161
534 182 103 46 52 40 -111 -12 -162 -52 -313 -95 -463 -130 -110 -26 -122 -16
-55 45 93 85 198 147 428 253 126 58 160 80 123 80 -24 0 -213 -69 -303 -110
-107 -50 -234 -134 -293 -194 -84 -87 -84 -55 -1 123 64 137 74 176 74 293
l-1 97 87 31 c250 91 547 105 691 32 44 -22 62 -39 88 -82 38 -64 48 -96 68
-205 l14 -80 -4 80 c-7 142 -59 257 -140 308 -129 81 -500 82 -713 1 -108 -41
-109 -41 -117 -2 -13 64 -105 232 -175 319 -80 98 -259 272 -325 316 l-44 30
26 16 c42 25 120 109 165 178 23 35 61 77 85 94 24 16 76 60 116 97 76 69 128
100 234 138 78 28 80 46 6 56 -97 12 -255 -16 -284 -51 -9 -11 -3 -11 36 1 26
8 66 14 88 14 40 0 37 -3 -84 -66 -194 -103 -393 -219 -530 -310 -114 -76
-360 -273 -452 -362 -21 -19 -40 -33 -43 -30 -6 6 81 130 132 185 51 56 147
139 266 231 88 68 111 92 89 92 -13 0 -234 -168 -279 -213 -60 -58 -54 -37 8
29 29 30 46 54 38 54 -19 0 -180 -169 -236 -248 -25 -35 -46 -62 -48 -60 -1 2
1 120 5 263 8 302 1 356 -43 340 -24 -10 -30 -36 -9 -42 18 -4 19 -24 26 -301
7 -286 4 -350 -15 -320 -5 7 -9 32 -9 55 0 99 -53 273 -123 406 -49 92 -67
102 -28 15 30 -65 91 -249 91 -271 0 -17 -88 138 -116 204 -28 68 -58 188 -75
294 -11 78 -28 131 -29 93 0 -24 37 -243 56 -323 9 -41 47 -133 90 -221 41
-83 74 -155 74 -160 -1 -24 -134 200 -165 279 -46 115 -90 295 -114 471 -22
159 -44 448 -39 515 l3 45 27 -41 c15 -22 65 -81 111 -130 92 -96 96 -104 133
-281 12 -59 24 -90 43 -110 23 -24 26 -37 29 -109 2 -46 8 -81 12 -78 15 10
22 123 10 179 -11 54 -25 67 -46 46 -8 -8 -13 12 -17 64 -4 42 -14 108 -23
148 -15 66 -22 78 -79 138 -126 133 -185 216 -209 293 -6 20 -25 23 -30 5z
m1493 -914 c-18 -20 -68 -53 -109 -73 -160 -80 -381 -222 -560 -361 -135 -104
-179 -133 -115 -75 85 77 235 195 306 241 79 51 501 303 508 304 3 0 -11 -16
-30 -36z m-176 -153 c-30 -48 -160 -147 -265 -202 -54 -29 -97 -57 -95 -63 2
-6 13 -9 23 -7 100 21 161 -13 319 -176 255 -264 349 -438 349 -648 1 -99 -14
-154 -69 -265 -18 -36 -38 -84 -46 -108 -7 -23 -16 -39 -20 -35 -4 4 5 52 21
106 66 219 75 363 31 462 -22 50 -76 115 -95 115 -5 0 2 -12 17 -27 63 -67 91
-201 68 -328 -19 -109 -75 -295 -88 -295 -16 0 -16 0 3 90 20 88 23 331 5 370
-9 20 -10 13 -5 -40 6 -76 -7 -225 -31 -326 l-16 -71 -52 5 c-29 2 -53 5 -54
6 -1 1 -7 44 -13 96 -16 138 -13 324 5 393 18 68 18 70 6 63 -5 -3 -17 -35
-26 -71 -16 -56 -17 -94 -12 -274 5 -208 5 -209 -16 -215 -40 -10 -46 -6 -71
42 -60 119 -135 401 -169 635 -14 98 -27 136 -27 81 0 -55 31 -277 51 -372 24
-112 79 -272 120 -353 l29 -58 -36 -28 -37 -28 -36 45 c-51 64 -264 281 -270
275 -2 -3 32 -42 76 -88 79 -81 203 -241 203 -261 0 -6 -9 -26 -20 -44 l-20
-32 -62 37 c-35 21 -112 87 -173 148 -118 117 -168 196 -215 334 -24 73 -29
194 -10 276 13 58 59 195 70 210 4 6 11 21 15 35 22 76 140 224 224 283 14 9
22 19 19 23 -9 8 -108 -58 -143 -96 -16 -18 -91 -73 -165 -122 -74 -50 -143
-97 -153 -106 -16 -15 -17 -15 -12 0 8 21 97 90 205 160 47 30 134 94 195 143
60 48 146 113 189 144 73 51 286 189 294 190 2 1 -4 -12 -15 -28z m-62 -88
c-23 -43 -165 -158 -182 -148 -6 4 9 19 38 35 26 16 70 51 98 79 53 55 61 61
46 34z m-1396 -108 c125 -103 272 -271 253 -290 -2 -2 -25 6 -50 18 -37 17
-57 38 -95 95 -27 41 -83 107 -123 149 -56 56 -69 73 -50 68 14 -4 43 -22 65
-40z m117 -42 c93 -54 209 -171 253 -254 20 -38 34 -69 30 -69 -3 0 -30 14
-59 30 -38 22 -56 39 -61 58 -10 39 -63 107 -153 195 -44 42 -78 77 -76 77 1
0 31 -17 66 -37z m-760 -127 c29 -12 82 -40 118 -60 64 -37 65 -37 25 -31 -22
3 -83 25 -135 47 -52 23 -115 47 -140 54 l-45 12 62 1 c45 1 77 -5 115 -23z
m163 -41 c61 -35 107 -65 103 -65 -5 0 -65 29 -135 65 -79 41 -118 65 -102 65
13 0 74 -29 134 -65z m-341 46 c3 -4 23 -11 43 -15 21 -3 65 -19 98 -35 l60
-30 -45 5 c-74 9 -133 22 -174 39 -36 15 -37 17 -20 30 22 17 31 18 38 6z
m-44 -51 c12 -8 9 -10 -13 -10 -16 0 -26 4 -22 10 8 12 16 12 35 0z m95 -71
c-45 -18 -56 -19 -104 -8 -71 17 -44 28 69 28 l85 0 -50 -20z m225 -9 c25 -8
25 -8 -4 -9 -16 -1 -69 -11 -117 -23 -73 -18 -92 -20 -115 -9 -15 6 -25 14
-22 16 3 3 33 11 69 19 71 16 151 18 189 6z m1352 -48 c-26 -49 -29 -51 -82
-60 -30 -6 -56 -9 -58 -7 -1 1 35 29 80 63 46 33 84 59 85 58 2 -1 -10 -25
-25 -54z m-1297 22 c-17 -7 -37 -13 -45 -13 -8 0 -5 4 8 9 12 5 22 14 22 19 0
5 10 6 22 3 22 -5 21 -6 -7 -18z m149 -18 c-11 -8 -66 -30 -122 -50 -56 -19
-114 -42 -129 -50 -26 -13 -32 -12 -75 11 -27 15 -48 29 -48 33 0 4 31 10 68
13 37 4 104 18 147 31 44 13 102 24 130 25 45 1 48 0 29 -13z m-215 -1 c-12
-12 -175 -43 -183 -35 -12 12 2 17 79 28 70 11 110 14 104 7z m503 -18 c21 -7
40 -15 42 -18 3 -3 -50 -38 -117 -78 l-122 -73 -70 9 -70 8 102 53 c56 29 115
66 130 81 32 33 53 36 105 18z m101 -62 c3 -17 -189 -107 -219 -103 -22 2 -7
13 86 61 111 56 130 62 133 42z m44 -56 c-57 -33 -105 -53 -133 -57 -58 -6
-56 10 4 31 26 10 70 31 97 47 29 17 64 30 85 30 33 0 30 -3 -53 -51z m183 47
c0 -10 -215 -116 -234 -115 -12 0 31 27 94 59 105 54 140 68 140 56z m90 -11
c0 -2 -31 -29 -69 -60 -68 -55 -68 -55 -137 -55 l-69 1 120 58 c107 53 155 70
155 56z m390 -2 c0 -5 -10 -33 -21 -63 -12 -30 -29 -93 -39 -140 l-17 -85 -17
40 c-10 22 -31 81 -47 130 l-29 90 21 18 c15 12 39 17 85 17 35 0 64 -3 64 -7z
m-340 -11 c0 -15 -75 -80 -100 -87 -19 -6 -12 4 30 43 54 50 70 60 70 44z
m1052 -846 c16 -22 -18 -51 -47 -40 -15 6 -20 35 -9 47 9 9 48 4 56 -7z m86
-7 c16 -26 -1 -51 -32 -47 -24 4 -33 33 -16 53 17 21 33 19 48 -6z m-199 -46
c12 -23 -4 -53 -29 -53 -25 0 -41 29 -29 52 12 23 45 23 58 1z m299 -24 c3
-28 -16 -43 -42 -33 -38 14 -27 67 13 62 20 -2 27 -9 29 -29z m-210 -15 c4
-30 -21 -48 -47 -34 -21 11 -28 40 -14 54 15 15 58 1 61 -20z m-109 -52 c13
-24 -12 -62 -40 -62 -25 0 -35 25 -21 56 14 29 47 32 61 6z m405 2 c9 -25 -12
-56 -37 -52 -22 3 -33 28 -23 54 7 19 52 18 60 -2z m-189 -44 c0 -16 -8 -28
-23 -35 -17 -8 -21 -16 -17 -35 7 -34 -7 -52 -36 -48 -20 2 -25 10 -27 41 -4
43 12 69 35 60 11 -4 14 -3 9 6 -11 17 14 42 38 39 15 -2 21 -10 21 -28z
m-124 -37 c15 -39 8 -67 -18 -71 -17 -3 -26 5 -37 33 -18 43 -12 65 20 65 17
0 28 -8 35 -27z m-225 -31 c-23 -24 -31 -7 -9 21 14 19 19 22 21 10 2 -8 -3
-22 -12 -31z m139 8 c0 -20 -6 -26 -27 -28 -24 -3 -28 0 -28 21 0 30 9 39 35
35 14 -2 20 -10 20 -28z m318 9 c23 -37 -25 -68 -52 -35 -9 11 -10 20 -1 36
13 24 38 23 53 -1z m125 -66 c4 -29 -34 -56 -60 -42 -38 20 -13 72 32 67 17
-2 26 -10 28 -25z m752 -10 c-18 -21 -62 -64 -99 -95 -65 -57 -66 -57 -85 -38
-11 11 -17 22 -14 25 13 13 214 144 222 144 4 1 -6 -16 -24 -36z m-930 8 c7
-15 6 -23 -6 -35 -8 -9 -19 -16 -24 -16 -5 0 -16 7 -24 16 -20 19 -5 54 24 54
11 0 24 -9 30 -19z m-145 -45 c0 -30 -31 -44 -51 -24 -24 24 -11 50 23 46 20
-2 28 -9 28 -22z m-231 -29 c9 -15 7 -21 -8 -33 -23 -16 -31 -10 -40 29 -6 25
-4 28 15 25 12 -2 27 -11 33 -21z m123 7 c3 -8 1 -25 -5 -37 -6 -12 -13 -35
-14 -52 -2 -24 -8 -30 -27 -30 -33 0 -51 48 -27 74 9 10 13 20 10 24 -4 3 -4
13 -1 22 8 20 56 20 64 -1z m-1152 -59 c106 -60 232 -113 332 -138 69 -17 81
-23 71 -34 -14 -17 -59 -12 -177 19 -101 26 -178 69 -254 139 -34 32 -59 58
-56 59 3 0 41 -20 84 -45z m1345 15 c7 -13 7 -26 1 -37 -5 -10 -12 -26 -15
-35 -7 -23 -54 -24 -63 -2 -3 8 -1 20 6 27 6 6 11 21 11 32 0 12 3 25 7 28 13
14 43 6 53 -13z m179 -15 c33 -32 20 -42 -56 -43 -61 0 -74 13 -52 55 11 21
18 24 48 19 19 -3 46 -17 60 -31z m-291 -31 c4 -25 -20 -47 -42 -38 -16 6 -22
45 -9 58 14 14 48 1 51 -20z m230 -46 c32 -32 -7 -90 -47 -69 -33 18 -43 38
-31 60 12 24 58 29 78 9z m-310 -57 c5 -36 -13 -47 -38 -23 -28 26 -20 55 12
50 15 -2 24 -11 26 -27z m136 13 c19 -7 21 -45 4 -62 -34 -34 -79 7 -52 46 16
23 23 26 48 16z m1621 -206 c87 -29 252 -117 480 -256 223 -137 224 -133 -6
-86 -156 32 -219 52 -219 68 0 34 -224 221 -335 281 -46 25 -48 26 -15 20 19
-4 62 -16 95 -27z m-184 -18 c75 -23 162 -73 235 -135 29 -25 56 -45 60 -45
13 0 -67 79 -126 123 -76 57 -81 62 -35 39 61 -30 152 -102 230 -182 l70 -71
-70 26 c-112 42 -202 91 -322 177 -62 45 -113 83 -113 84 0 6 4 5 71 -16z"/>
<path d="M2530 3690 c-30 -10 -66 -19 -80 -19 -14 -1 -50 -17 -80 -36 -51 -31
-55 -32 -58 -15 -2 11 -7 20 -10 20 -13 0 -55 -32 -115 -87 -55 -50 -87 -66
-87 -42 0 5 -4 7 -10 4 -12 -7 -12 -16 -1 -33 12 -19 60 7 130 69 55 49 71 58
71 39 0 -18 40 -10 79 16 24 15 64 29 102 35 75 11 166 40 171 54 5 17 -54 14
-112 -5z"/>
<path d="M2015 3521 c-51 -31 -181 -184 -262 -306 -77 -117 -70 -113 30 17 93
121 226 258 265 275 17 7 32 18 32 23 0 16 -33 11 -65 -9z"/>
</g>
</svg>
