<?xml version="1.0" standalone="no"?>
<!DOCTYPE svg PUBLIC "-//W3C//DTD SVG 20010904//EN"
 "http://www.w3.org/TR/2001/REC-SVG-20010904/DTD/svg10.dtd">
<svg version="1.0" xmlns="http://www.w3.org/2000/svg"
 width="500.000000pt" height="500.000000pt" viewBox="0 0 500.000000 500.000000"
 preserveAspectRatio="xMidYMid meet">

<g transform="translate(0.000000,500.000000) scale(0.100000,-0.100000)"
fill="#000000" stroke="none">
<path d="M1510 4871 c0 -5 14 -11 30 -15 17 -3 52 -26 78 -51 l47 -45 -33 0
c-19 0 -35 6 -38 14 -3 8 -17 22 -31 31 -26 18 -25 7 4 -27 14 -15 11 -15 -45
0 l-60 16 19 24 c25 33 17 40 -17 13 -15 -11 -40 -21 -55 -21 -40 0 -37 -17
15 -94 l45 -65 -24 -36 c-74 -107 -74 -161 -2 -242 19 -21 37 -50 41 -65 5
-22 21 -36 75 -63 66 -33 84 -48 86 -70 1 -5 7 -31 14 -58 16 -57 43 -79 132
-107 84 -26 108 -25 203 8 59 20 80 24 83 14 3 -7 25 -39 49 -72 34 -44 60
-66 106 -89 34 -17 67 -31 74 -31 22 0 97 -140 153 -285 25 -66 79 -270 73
-276 -4 -4 -25 -12 -47 -19 -59 -19 -202 -166 -244 -251 -27 -56 -34 -84 -46
-201 -9 -91 -20 -151 -34 -183 l-21 -47 45 -40 c40 -37 58 -68 38 -68 -5 0 -8
-32 -8 -71 0 -51 -5 -73 -15 -79 -8 -5 -15 -15 -15 -22 0 -7 -9 -13 -20 -13
-15 0 -19 -6 -18 -22 2 -13 -3 -23 -10 -23 -6 0 -23 -3 -37 -6 -20 -5 -22 -3
-10 5 13 10 12 13 -5 27 -11 8 -33 14 -50 12 -24 -2 -31 -8 -33 -30 -3 -22 1
-28 16 -28 11 0 23 7 26 16 3 8 11 12 16 9 16 -10 -8 -35 -34 -35 -28 0 -50
15 -42 29 17 26 -7 30 -31 5 -24 -26 -22 -35 11 -47 5 -2 -12 -29 -37 -61 -54
-65 -92 -135 -101 -186 -6 -30 -4 -29 13 13 11 26 46 79 78 118 32 39 64 78
70 87 29 36 24 -3 -9 -75 -42 -91 -62 -152 -82 -248 -19 -93 -31 -231 -20
-238 5 -2 10 27 11 67 4 102 47 264 107 393 70 155 81 153 90 -18 5 -101 12
-148 32 -210 15 -44 29 -78 31 -75 2 2 -6 32 -18 67 -18 52 -23 92 -27 217
l-4 152 25 0 c21 0 30 -9 46 -45 30 -69 66 -110 142 -161 59 -41 72 -55 88
-98 10 -28 31 -71 45 -96 24 -42 34 -99 20 -113 -4 -4 -19 9 -33 28 -26 35
-111 98 -120 89 -3 -2 6 -12 20 -21 39 -27 99 -95 105 -120 5 -18 -5 -35 -46
-80 -29 -31 -59 -72 -68 -90 -19 -40 -27 -36 -36 18 -7 42 -48 133 -66 144
-14 8 -13 5 9 -41 10 -21 24 -66 31 -99 6 -33 14 -68 16 -77 3 -12 -7 -25 -34
-43 -42 -27 -328 -126 -377 -130 -16 -1 -46 -5 -66 -9 -51 -11 -76 5 -84 52
-9 53 11 194 34 248 11 24 16 44 12 44 -11 0 -48 -85 -60 -141 -6 -24 -11 -76
-11 -116 l0 -72 -46 19 c-25 11 -71 27 -102 36 -84 24 -119 55 -158 140 -19
42 -44 80 -58 90 -15 9 -26 24 -26 34 0 41 116 174 223 256 73 54 66 58 -11 5
-85 -57 -207 -180 -223 -224 -7 -20 -17 -37 -21 -37 -5 0 -20 12 -34 27 -13
14 -27 23 -30 20 -11 -10 24 -55 54 -71 42 -22 67 -54 106 -139 43 -91 68
-112 173 -147 82 -27 77 -20 103 -123 7 -27 16 -44 19 -38 4 5 37 -9 80 -35
40 -25 86 -48 103 -51 25 -5 78 -56 78 -76 0 -8 -145 49 -175 69 -14 9 -28 14
-31 11 -10 -9 44 -39 139 -77 75 -30 92 -41 100 -64 5 -15 7 -29 5 -31 -4 -5
-133 27 -192 47 -35 12 -41 19 -58 67 -10 30 -21 57 -24 60 -7 6 0 -32 12 -66
4 -11 -11 -2 -37 23 -54 50 -126 101 -199 142 -125 70 -320 132 -416 132 -28
0 -65 5 -83 11 -18 6 -34 9 -37 6 -3 -2 13 -32 34 -65 22 -33 49 -87 62 -119
47 -121 123 -264 155 -291 72 -62 190 -149 248 -185 137 -84 266 -89 342 -13
21 21 25 34 25 88 l0 62 48 -46 c47 -47 104 -78 141 -78 13 0 29 -17 49 -54
l29 -54 -76 -7 c-42 -5 -175 -9 -296 -9 l-220 -1 -45 31 c-62 44 -128 64 -210
64 -64 0 -79 -4 -176 -52 -94 -46 -114 -52 -185 -56 -44 -3 -82 -9 -86 -15 -9
-15 88 -99 159 -137 51 -28 71 -32 132 -32 98 -1 143 14 234 76 104 72 154 96
197 96 l35 0 -76 -72 c-41 -39 -93 -85 -115 -102 -26 -20 -36 -33 -29 -40 6
-6 68 -12 139 -14 227 -7 289 26 400 216 9 15 123 34 181 30 l41 -3 -36 -43
c-20 -23 -43 -42 -50 -42 -8 0 -17 -4 -20 -10 -3 -5 2 -10 11 -10 10 0 39 23
65 52 l48 51 64 -21 c35 -12 73 -22 85 -22 45 0 183 -104 368 -278 l67 -62 76
0 76 1 -27 24 c-16 13 -34 28 -42 32 -8 5 -26 33 -39 63 -19 45 -22 62 -15 95
5 22 11 51 14 63 4 21 9 17 44 -36 52 -81 102 -135 158 -170 58 -37 192 -79
201 -63 7 11 22 10 101 -3 l35 -6 -32 12 c-18 6 -33 14 -33 17 2 18 103 49
180 55 47 3 95 8 108 12 31 9 28 -10 -5 -32 -23 -15 -47 -19 -130 -19 -99 0
-124 -8 -60 -20 18 -3 59 -2 91 3 59 9 59 9 35 -9 l-24 -19 31 0 c23 0 42 11
77 44 58 56 80 99 107 211 11 50 32 114 46 144 13 30 23 55 21 57 -1 2 -52 -3
-112 -10 -75 -8 -127 -20 -165 -37 -69 -32 -167 -121 -221 -202 -31 -47 -39
-55 -34 -33 5 24 24 204 25 244 0 6 7 12 15 12 8 0 15 5 15 10 0 6 -5 10 -12
10 -6 0 1 14 17 30 21 22 54 39 113 57 94 29 105 40 18 17 -64 -17 -80 -13
-44 10 32 21 130 46 208 53 l65 6 -43 -45 c-57 -60 -142 -109 -221 -129 l-66
-17 37 -7 c84 -16 263 108 360 249 60 87 202 398 187 409 -2 2 -49 0 -104 -3
-98 -6 -103 -8 -220 -68 -66 -34 -142 -79 -170 -100 -88 -67 -150 -168 -171
-277 -12 -64 17 -37 36 34 10 34 23 68 29 74 6 6 11 19 11 29 0 20 102 128
139 148 l24 12 -6 -68 c-10 -106 -40 -202 -74 -236 l-30 -29 8 53 c8 59 11
124 5 117 -2 -2 -12 -47 -20 -99 -16 -89 -36 -140 -55 -140 -5 0 -5 19 0 43 4
23 8 71 7 107 l-1 65 -7 -70 c-14 -144 -27 -195 -49 -195 -4 0 -5 16 -3 35 3
21 0 35 -7 35 -6 0 -11 -3 -12 -7 0 -5 -2 -62 -5 -128 -4 -125 -32 -311 -45
-298 -4 5 -13 78 -20 163 -12 151 -13 157 -53 235 -23 44 -49 105 -60 135 -18
52 -54 98 -104 130 l-23 15 21 62 c14 40 28 64 40 68 10 3 65 5 122 3 98 -3
106 -1 168 28 107 51 161 101 245 229 l75 115 43 0 c73 0 169 29 247 74 41 24
105 53 143 65 111 37 204 123 255 235 15 33 43 93 64 133 20 40 34 73 31 73
-3 0 -16 -9 -30 -20 -40 -31 -115 -49 -253 -60 -167 -14 -292 -34 -389 -65
-152 -48 -297 -171 -338 -287 -20 -54 -47 -72 -158 -108 -38 -13 -83 -29 -98
-37 l-28 -14 17 33 c9 18 52 69 95 113 44 46 98 115 127 164 l49 83 57 4 c164
13 399 167 540 354 40 54 146 223 146 234 0 3 -10 6 -22 6 -18 0 -20 -2 -9 -9
12 -8 12 -13 3 -24 -7 -8 -26 -39 -42 -68 l-29 -54 -88 -11 c-48 -6 -89 -10
-90 -9 -2 1 42 30 96 66 137 89 144 94 76 58 -33 -18 -97 -56 -143 -86 -45
-29 -85 -53 -88 -53 -8 0 56 92 89 128 17 17 26 32 21 32 -23 0 -187 -61 -236
-87 -85 -45 -150 -117 -198 -219 -23 -49 -58 -123 -78 -164 -21 -41 -37 -80
-37 -86 -1 -39 -174 -272 -174 -234 0 8 15 31 34 50 50 49 69 94 115 274 51
205 52 263 6 400 -18 55 -37 101 -42 103 -6 2 -28 -34 -49 -79 -22 -46 -40
-84 -41 -86 -1 -2 -13 8 -27 22 -20 20 -36 26 -70 26 -50 0 -107 -17 -107 -32
0 -6 6 -8 14 -5 7 3 34 8 58 12 39 6 49 3 73 -18 24 -20 29 -33 33 -87 5 -71
12 -68 -77 -35 -69 25 -69 12 1 -20 35 -16 64 -30 65 -30 7 -1 12 -163 5 -173
-7 -10 -28 -4 -93 27 -46 22 -100 42 -119 45 -28 5 -24 2 18 -13 28 -11 79
-36 112 -57 47 -29 58 -40 51 -53 -5 -9 -50 -55 -99 -104 -86 -83 -91 -87
-118 -77 -30 12 -150 97 -196 139 -16 13 -28 20 -28 15 0 -19 139 -139 194
-168 l29 -15 -44 -11 c-55 -15 -151 -1 -218 32 -44 22 -46 25 -52 73 -3 28
-19 75 -35 105 -16 31 -35 70 -42 88 -9 20 -36 47 -72 72 -101 69 -185 187
-166 236 5 13 14 5 39 -37 23 -38 53 -69 106 -106 89 -64 117 -71 33 -8 -61
46 -97 86 -126 142 -27 54 -18 58 32 12 106 -99 243 -195 352 -248 36 -17 56
-25 46 -19 -10 7 -58 38 -105 69 -75 49 -271 204 -271 215 0 10 73 -11 140
-41 62 -28 270 -112 330 -132 47 -16 -88 62 -154 89 -80 33 -80 33 -41 36 38
2 171 30 260 54 50 13 113 58 143 101 12 19 27 63 33 98 13 74 75 188 117 215
15 9 38 27 52 39 14 12 43 25 65 28 22 4 58 19 80 35 22 15 59 33 83 40 37 11
47 11 86 -7 38 -16 48 -28 74 -83 16 -34 38 -87 48 -117 28 -80 66 -115 141
-131 34 -7 74 -9 89 -6 28 7 68 45 118 111 l30 38 14 -30 c16 -34 54 -59 72
-48 8 5 6 13 -8 29 -11 11 -31 44 -45 73 -30 63 -107 155 -154 184 -19 12 -32
23 -30 25 2 2 29 -3 61 -11 77 -20 83 -18 16 6 -74 26 -216 49 -320 50 l-85 1
55 14 c30 8 102 14 160 15 58 1 132 6 164 11 56 9 231 67 224 74 -2 2 -40 -8
-83 -23 -69 -22 -106 -26 -270 -33 -104 -4 -206 -12 -225 -18 -33 -11 -34 -10
-15 4 40 31 109 68 206 110 97 42 189 99 189 116 0 5 -17 -5 -38 -21 -21 -17
-86 -48 -148 -70 -61 -21 -120 -44 -132 -50 -34 -18 -33 -14 2 52 55 98 91
130 183 161 44 15 102 41 129 58 119 76 199 96 249 64 32 -21 38 -20 32 4 -6
25 5 26 25 3 27 -30 49 -96 43 -123 l-7 -25 -19 24 c-10 13 -19 31 -19 42 0
10 -4 21 -10 24 -30 18 1 -85 37 -127 8 -9 12 -21 9 -26 -3 -5 -40 -19 -83
-32 -90 -27 -76 -39 17 -15 34 9 65 14 67 11 3 -3 -2 -17 -11 -30 -20 -31 -21
-56 -2 -56 17 0 76 -65 76 -83 0 -11 -39 -136 -44 -144 -1 -1 -24 9 -51 22
-26 14 -60 25 -74 24 -21 0 -16 -5 29 -27 75 -37 90 -46 89 -52 -3 -28 -57
-165 -65 -167 -6 -2 -32 15 -57 38 -60 52 -61 38 -2 -22 49 -51 47 -62 -11
-78 -47 -12 -41 -31 9 -31 82 0 111 47 172 285 33 131 33 198 0 230 -13 14
-28 25 -33 25 -5 0 0 19 11 41 17 34 18 47 10 70 -8 20 -8 41 -1 69 8 29 8 48
0 65 -7 14 -9 54 -7 93 5 70 -13 191 -34 230 -16 30 -52 47 -151 71 -46 12
-92 29 -102 37 -9 9 -30 48 -45 85 -16 38 -31 69 -35 69 -12 0 -10 -15 15 -83
l23 -64 -28 -34 c-15 -18 -28 -38 -28 -44 1 -5 13 5 29 23 15 17 32 32 37 32
5 0 22 -21 39 -47 24 -39 31 -61 33 -118 5 -97 -10 -151 -50 -171 -17 -9 -51
-31 -77 -49 -25 -18 -77 -45 -116 -60 -38 -15 -80 -35 -94 -44 l-25 -16 19 32
c10 17 52 70 94 117 42 47 86 105 99 128 l23 43 -23 -30 c-28 -36 -197 -209
-177 -180 8 11 30 40 51 65 58 71 73 127 43 166 -15 18 -15 18 -9 -8 8 -36
-23 -101 -80 -167 -56 -64 -70 -91 -98 -179 -25 -84 -53 -139 -86 -174 -28
-30 -52 -36 -52 -14 0 8 -7 22 -16 31 -11 10 -13 20 -7 28 6 7 25 49 43 95 18
45 46 101 63 125 l30 42 -31 -28 c-17 -16 -51 -75 -78 -133 -40 -89 -51 -104
-71 -104 -28 0 -28 -3 -3 54 12 25 32 105 46 178 29 156 49 202 109 257 49 45
49 51 0 21 -67 -42 -103 -115 -144 -298 -16 -70 -39 -149 -50 -175 -23 -53
-26 -71 -11 -62 16 10 12 -2 -20 -52 -31 -48 -43 -87 -13 -43 30 46 77 90 95
90 26 0 11 -25 -65 -108 -104 -113 -116 -129 -57 -79 30 26 75 71 100 101 49
60 60 66 60 37 0 -11 7 -21 17 -23 14 -3 14 -5 -2 -18 -11 -9 -16 -10 -11 -2
17 29 -15 8 -44 -28 -59 -75 -176 -157 -195 -138 -11 11 40 131 78 187 l43 61
-8 102 c-11 138 -24 179 -116 359 -43 85 -89 186 -102 224 -30 94 -42 104 -23
19 22 -96 65 -202 130 -317 57 -99 83 -179 83 -252 l0 -40 -45 79 c-85 149
-149 217 -280 296 -95 58 -104 48 -11 -11 143 -92 235 -208 316 -398 l31 -73
-24 -27 c-41 -43 -87 -122 -103 -176 -10 -37 -22 -56 -43 -68 -16 -9 -32 -17
-35 -17 -3 0 -6 26 -6 58 0 82 -34 146 -115 217 -36 31 -70 55 -77 53 -6 -2
18 -30 53 -61 35 -31 72 -70 82 -86 l18 -30 -93 -30 c-51 -16 -82 -30 -68 -30
25 -1 114 20 154 35 18 7 19 3 14 -72 -9 -130 -19 -143 -134 -194 -55 -23
-111 -50 -126 -58 -44 -26 -32 -35 14 -11 23 12 65 29 93 39 27 10 58 21 68
25 17 7 17 5 4 -26 -8 -19 -20 -61 -26 -94 -9 -52 -17 -66 -59 -107 -64 -61
-97 -70 -205 -50 -82 14 -124 12 -113 -7 3 -5 29 -15 58 -22 l53 -12 -40 -15
c-44 -16 -173 -21 -220 -9 l-30 9 50 20 c97 39 93 37 58 37 -18 1 -58 -6 -89
-14 -44 -11 -67 -12 -97 -4 -59 16 -87 31 -80 43 4 6 6 23 5 38 -2 28 -2 28
62 28 36 0 89 5 118 11 80 16 228 61 228 69 0 4 -48 -5 -107 -21 -60 -15 -150
-30 -201 -34 l-94 -8 4 29 c3 25 15 35 90 75 86 47 237 147 293 195 38 33 22
24 -95 -55 -91 -60 -268 -156 -276 -149 -9 10 448 526 492 555 14 9 22 18 20
21 -13 12 -118 -82 -210 -188 -55 -64 -153 -176 -216 -248 l-115 -131 -22 21
-22 21 22 26 c24 29 40 64 87 191 17 47 42 102 56 123 14 22 23 41 21 43 -10
10 -81 -113 -118 -204 -49 -119 -83 -174 -104 -165 -14 5 -14 7 -1 22 29 32
45 90 55 192 11 117 28 171 72 240 36 57 169 186 206 200 15 5 69 12 122 16
l96 6 -31 -34 c-17 -19 -48 -56 -70 -84 -35 -45 -30 -42 44 28 95 90 97 90
163 1 40 -55 64 -73 77 -60 3 4 2 13 -3 20 -6 7 -32 43 -59 79 -57 77 -78 87
-182 87 l-72 0 -7 43 c-22 134 -114 348 -195 455 -22 29 -40 57 -40 62 0 20
-90 172 -129 217 l-39 47 35 70 c47 94 55 173 23 235 -38 75 -104 136 -178
166 -37 15 -71 34 -76 42 -6 11 -10 12 -15 4 -5 -8 -35 5 -90 38 -45 28 -103
58 -129 67 -29 11 -72 42 -114 81 -46 44 -74 63 -92 63 -14 0 -26 -4 -26 -9z
m16 -115 c27 -8 91 -22 142 -30 88 -14 100 -19 194 -80 55 -36 104 -66 108
-66 13 0 70 -123 70 -152 l0 -29 -36 36 c-66 66 -267 205 -279 193 -3 -3 25
-26 63 -51 103 -71 194 -149 219 -186 17 -25 23 -48 23 -86 0 -28 7 -74 15
-101 8 -27 15 -51 15 -53 0 -3 -14 8 -31 25 l-32 29 32 -44 c17 -24 31 -48 31
-52 0 -4 -15 -3 -32 2 -18 5 -45 9 -60 9 -24 0 -34 11 -72 78 -55 94 -76 125
-83 118 -3 -3 0 -12 7 -21 7 -8 31 -53 54 -100 l42 -85 -37 0 c-52 0 -81 38
-180 240 -90 183 -184 356 -200 366 -6 3 27 -67 73 -157 46 -90 99 -200 117
-244 18 -44 46 -104 62 -133 24 -43 26 -51 11 -43 -34 18 -136 184 -170 276
-71 196 -86 228 -128 285 -24 33 -44 62 -44 65 0 10 57 5 106 -9z m-6 -214
c17 -50 17 -54 2 -33 -9 14 -25 34 -35 45 -18 21 -18 21 -6 -4 6 -14 27 -46
45 -72 33 -46 88 -167 80 -175 -2 -3 -18 16 -36 41 -17 25 -33 46 -36 46 -13
0 50 -101 87 -138 l43 -43 -77 46 c-79 48 -92 66 -81 109 6 26 -8 37 -21 16
-17 -28 -75 68 -75 123 0 24 11 49 36 82 42 54 42 54 74 -43z m523 33 c20 -8
52 -29 72 -47 44 -38 95 -135 95 -180 0 -32 -1 -31 -25 20 -13 28 -26 52 -29
52 -2 0 4 -25 15 -55 29 -83 25 -129 -17 -200 -19 -33 -33 -49 -30 -35 15 66
16 99 2 140 l-14 45 5 -57 c3 -31 2 -69 -2 -85 l-7 -28 -21 40 c-17 33 -22 64
-27 171 -4 99 -10 138 -23 158 -9 14 -24 37 -33 51 -19 29 -11 31 39 10z
m-298 -466 c53 -19 73 -21 168 -15 104 6 157 2 157 -13 0 -16 -77 -30 -151
-27 -43 1 -76 -1 -73 -6 3 -4 18 -8 35 -8 16 0 29 -4 29 -10 0 -17 -77 -11
-131 10 -55 20 -99 55 -99 77 0 16 -5 17 65 -8z m434 -85 c36 -48 56 -54 24
-7 -35 50 -37 58 -5 29 29 -27 110 -166 97 -166 -4 0 -28 9 -54 21 -35 15 -63
38 -100 85 -28 35 -48 64 -44 64 4 0 34 -28 66 -62 32 -35 49 -49 38 -33 -12
17 -35 49 -52 73 -41 57 -14 54 30 -4z m1953 -371 c59 -18 73 -37 94 -130 20
-91 14 -122 -21 -115 -19 3 -25 11 -25 29 0 24 -42 73 -64 73 -6 1 3 7 19 15
l30 14 -32 -6 c-19 -3 -39 0 -48 7 -12 10 -12 15 3 38 16 26 16 26 -1 13 -15
-12 -17 -11 -17 5 0 11 -9 34 -20 52 l-20 32 28 -6 c15 -3 48 -12 74 -21z m14
-184 c7 -5 14 -18 17 -28 4 -17 -2 -20 -44 -23 -38 -2 -46 0 -34 8 22 16 19
27 -4 14 -28 -14 -31 -13 -31 14 0 50 7 56 48 39 20 -8 42 -19 48 -24z m-361
-638 c49 -21 107 -76 153 -144 l32 -46 -28 -29 c-15 -16 -42 -46 -60 -66 -30
-33 -37 -36 -85 -35 -109 1 -147 32 -188 157 -11 37 -32 86 -45 110 l-23 42
30 -17 c17 -10 72 -57 123 -105 56 -52 104 -89 122 -93 26 -5 26 -5 -6 10 -33
15 -244 224 -235 233 9 9 68 -19 108 -51 39 -32 125 -82 102 -60 -5 6 -39 36
-74 68 l-64 58 47 -6 c26 -4 67 -15 91 -26z m-631 -550 c-17 -103 -30 -120
-35 -46 -3 37 37 162 48 152 2 -2 -4 -50 -13 -106z m577 37 c-18 -18 -48 -60
-67 -93 -30 -50 -114 -131 -114 -109 0 3 23 51 51 105 48 90 55 100 93 113 63
22 71 19 37 -16z m-542 -70 c-12 -16 -22 -28 -24 -26 -2 2 2 30 7 62 l11 59
13 -32 c13 -30 12 -36 -7 -63z m421 17 c-17 -25 -47 -78 -66 -119 -19 -40 -48
-86 -64 -101 -35 -34 -35 -34 -11 36 46 132 72 179 115 204 57 35 61 31 26
-20z m-381 -63 c1 -30 -113 -251 -124 -240 -5 5 52 213 65 239 7 13 20 32 28
42 16 18 17 18 23 0 4 -10 8 -28 8 -41z m261 -34 c-22 -46 -46 -107 -52 -136
-10 -41 -23 -63 -60 -99 -54 -53 -58 -48 -32 50 23 89 60 155 121 214 29 29
56 53 58 53 2 0 -14 -37 -35 -82z m-368 -28 c3 -36 -3 -71 -11 -65 -14 8 -25
108 -15 136 7 22 9 20 16 -16 5 -22 9 -47 10 -55z m768 81 c0 -4 -9 -20 -21
-35 -18 -23 -28 -26 -77 -26 -54 0 -96 -7 -152 -25 l-25 -7 24 25 c40 44 251
101 251 68z m-665 -178 c-3 -23 -17 -63 -30 -88 -13 -26 -21 -53 -18 -61 2 -7
-2 -37 -11 -66 -12 -43 -28 -66 -82 -118 l-66 -65 6 43 c5 33 17 53 49 85 47
46 102 116 96 121 -2 2 -32 -28 -67 -66 -52 -58 -62 -64 -56 -41 3 15 17 44
30 64 13 19 24 42 24 50 0 9 22 53 49 98 28 45 56 99 63 119 l13 37 3 -35 c2
-19 1 -53 -3 -77z m575 62 c-39 -40 -49 -45 -90 -45 -52 0 -155 -15 -185 -26
-16 -6 -15 -1 8 23 21 22 52 37 120 57 51 16 97 29 102 31 6 2 28 4 50 4 l39
1 -44 -45z m-697 -86 c-8 -29 -13 -23 -13 14 0 22 3 28 9 18 5 -7 6 -22 4 -32z
m607 1 c-19 -17 -47 -33 -62 -36 -15 -4 -26 -10 -23 -14 12 -20 -45 -38 -133
-42 -50 -2 -92 -3 -92 -1 0 11 82 37 135 44 l60 8 -72 -3 c-39 -1 -69 2 -67 6
18 28 154 65 244 67 l45 0 -35 -29z m511 -107 c-16 -32 -36 -75 -44 -96 -9
-20 -23 -40 -31 -43 -9 -3 -14 -10 -11 -14 9 -15 -107 -129 -158 -155 -44 -22
-63 -25 -146 -24 -53 1 -148 6 -211 13 l-115 11 85 30 c78 27 96 29 205 27 66
-1 154 4 195 11 72 12 68 13 -95 9 -93 -3 -168 -2 -165 1 3 2 40 19 83 36 70
27 91 31 190 33 68 1 86 3 47 5 -36 2 -76 6 -90 9 -24 6 -24 7 15 27 25 13 57
20 85 19 25 -1 61 3 80 8 29 8 24 9 -32 6 -38 -2 -68 -3 -68 -1 0 1 26 18 58
38 31 19 70 47 85 61 22 21 55 44 64 46 1 0 -11 -26 -26 -57z m-41 22 c0 -9
-130 -90 -197 -124 -35 -17 -63 -27 -63 -22 0 5 22 33 48 62 46 50 53 54 128
69 43 10 80 18 82 19 1 0 2 -1 2 -4z m-665 -40 c-49 -31 -126 -60 -180 -69
l-40 -7 35 31 c46 39 123 69 180 69 l45 0 -40 -24z m-205 -9 c0 -13 -6 -26
-14 -29 -11 -5 -12 0 -3 24 14 35 17 36 17 5z m641 -31 c-23 -25 -46 -55 -52
-68 -9 -19 -103 -67 -133 -67 -12 0 33 59 93 123 48 51 58 57 94 57 l40 0 -42
-45z m-102 -2 c-22 -20 -61 -65 -85 -99 -37 -52 -51 -63 -86 -72 -23 -6 -44
-9 -46 -7 -2 1 29 47 67 102 74 101 85 109 159 112 l32 1 -41 -37z m-152 -50
c-30 -38 -66 -86 -79 -108 -22 -34 -35 -43 -93 -62 -38 -12 -71 -21 -73 -18
-5 5 46 77 111 156 47 56 62 68 108 82 30 8 60 16 67 16 7 1 -11 -29 -41 -66z
m-168 -45 c-33 -40 -72 -92 -85 -115 -20 -33 -39 -48 -91 -73 -37 -17 -70 -29
-74 -28 -4 2 1 19 12 38 11 20 17 25 14 13 -4 -13 -2 -23 3 -23 6 0 13 12 16
26 18 72 100 155 201 204 33 16 61 30 63 30 1 0 -25 -33 -59 -72z m-509 1
c-13 -44 -20 -48 -20 -12 0 30 6 43 21 43 4 0 4 -14 -1 -31z m-19 -96 c0 -38
11 -57 21 -35 2 4 30 32 62 62 53 49 57 51 40 22 -33 -58 -82 -102 -113 -102
-27 0 -29 4 -40 61 -10 48 -10 64 1 76 11 13 13 12 21 -13 4 -16 8 -48 8 -71z
m-52 -51 c0 -87 -67 -375 -68 -296 -1 35 28 156 55 229 4 11 4 17 0 14 -4 -4
-18 -38 -31 -75 l-25 -69 0 90 c-1 97 -18 169 -19 81 l-1 -48 -27 17 c-14 10
-38 21 -52 25 -26 8 -26 8 14 25 21 9 58 33 82 52 24 20 43 33 43 31 0 -2 -7
-28 -16 -57 -8 -29 -14 -57 -12 -62 2 -6 12 21 23 60 10 38 22 68 27 65 4 -3
8 -40 7 -82z m-372 -3 c29 -11 77 -19 107 -19 l54 0 4 -74 c3 -60 10 -87 40
-147 20 -41 42 -91 48 -112 8 -26 19 -39 36 -43 35 -9 33 -22 -26 -184 -17
-47 -36 -90 -43 -97 -9 -9 -25 -7 -72 13 -33 14 -64 26 -69 27 -16 3 -25 -70
-25 -203 -1 -129 11 -202 48 -284 12 -28 15 -51 10 -71 -4 -16 -10 -43 -14
-60 l-6 -29 -21 44 c-44 98 -68 172 -106 340 -33 145 -41 199 -45 315 -3 77
-11 171 -18 209 -12 72 -8 354 6 389 5 12 13 16 24 11 9 -3 40 -15 68 -25z
m-124 -84 c-11 -62 -13 -118 -7 -245 4 -91 8 -213 9 -272 2 -86 9 -128 34
-210 17 -57 38 -138 46 -180 23 -116 59 -219 121 -350 31 -65 54 -123 51 -130
-3 -8 -39 22 -94 78 -101 103 -193 181 -260 221 -25 15 -41 29 -35 31 30 10
-5 22 -62 22 -113 0 -184 38 -227 121 -11 23 -19 42 -17 43 2 1 16 6 33 11 39
13 95 88 95 127 0 17 -7 54 -15 82 -8 28 -22 78 -31 111 -18 66 -57 111 -167
193 -32 24 -57 48 -55 54 2 6 73 30 157 54 217 61 249 78 308 167 44 67 122
161 129 155 1 -2 -5 -39 -13 -83z m1127 53 c30 -6 107 -12 170 -12 l116 -1
-54 -32 c-30 -18 -59 -33 -64 -33 -5 0 -19 -7 -32 -15 -36 -24 -163 -48 -186
-35 -24 13 -40 13 -20 0 11 -7 6 -10 -20 -10 -56 1 -105 15 -162 50 -60 36
-42 35 71 -5 41 -14 79 -24 85 -22 5 2 -26 16 -70 31 -43 15 -83 31 -87 36 -4
4 5 13 22 20 25 10 38 9 84 -8 72 -27 196 -52 249 -51 32 1 24 4 -31 10 -69 8
-241 54 -241 64 0 3 15 11 33 20 33 14 40 14 137 -7z m-554 -22 c-6 -17 -26
-56 -45 -86 -18 -30 -30 -46 -26 -35 4 11 12 50 18 86 10 62 13 66 37 66 26 0
27 -2 16 -31z m-199 -12 c31 -24 33 -28 33 -87 l0 -62 -25 42 c-14 23 -34 44
-44 48 -10 3 -22 16 -25 28 -17 62 5 74 61 31z m422 -47 c-2 -2 -33 -21 -68
-42 -78 -47 -192 -152 -237 -220 -40 -58 -41 -56 -13 46 24 91 41 106 182 163
47 18 96 41 108 50 13 8 25 13 28 11 2 -3 2 -6 0 -8z m67 -25 c43 -32 95 -52
131 -52 21 0 22 -2 11 -20 -7 -11 -19 -20 -26 -20 -7 0 -10 -5 -7 -10 12 -19
-105 -170 -168 -216 -56 -42 -63 -44 -131 -46 l-71 -1 54 -6 55 -6 -37 -13
c-36 -13 -237 -14 -237 -1 0 3 10 15 23 27 19 18 28 20 62 12 22 -5 49 -9 60
-9 11 1 0 6 -25 11 -25 5 -49 13 -53 18 -5 4 12 20 38 35 42 25 50 27 84 16
21 -6 56 -10 77 -10 34 2 35 3 9 6 -16 2 -48 9 -70 15 l-40 10 45 24 c37 19
63 24 140 25 l95 3 -83 5 -83 6 48 36 c37 27 56 35 78 32 17 -2 50 3 75 11 25
9 34 14 20 11 -14 -3 -45 -8 -70 -11 l-45 -7 40 44 40 43 -39 -33 c-44 -37
-56 -31 -56 32 0 20 -4 37 -10 37 -5 0 -8 -6 -6 -12 3 -7 7 -34 10 -60 l5 -46
-62 -40 c-110 -71 -197 -115 -197 -100 0 33 54 124 98 164 26 24 50 44 54 44
4 0 -7 -30 -24 -66 -23 -49 -28 -68 -19 -77 8 -8 11 -5 11 11 0 13 13 49 30
81 16 32 27 61 24 63 -2 3 16 16 41 29 25 13 45 27 45 31 0 14 17 8 56 -20z
m-514 -9 c34 -38 58 -103 57 -150 -1 -41 -2 -44 -9 -21 -4 15 -18 41 -29 57
-20 28 -51 102 -51 122 0 15 16 10 32 -8z m-1703 -256 c28 -58 27 -62 -11 -34
-52 38 -62 43 -55 24 12 -32 -32 -10 -57 28 l-16 25 59 0 59 0 21 -43z m66 21
c5 -7 55 -144 55 -151 0 -5 -14 1 -30 13 -27 19 -90 124 -90 149 0 8 58 -2 65
-11z m1817 -8 c-3 -19 -16 -38 -34 -52 l-30 -21 12 24 c14 26 50 79 54 79 1 0
1 -14 -2 -30z m-1227 -65 c35 -20 70 -50 83 -71 l23 -36 -22 7 c-13 4 -60 28
-106 54 -61 34 -84 53 -89 71 -3 14 -8 34 -11 45 -5 17 -2 16 28 -8 19 -15 61
-43 94 -62z m-526 59 c22 -9 42 -23 45 -32 3 -10 14 -50 26 -90 12 -41 19 -76
16 -79 -3 -3 -18 4 -34 16 -20 14 -40 47 -63 103 -19 45 -35 86 -37 90 -5 11
2 10 47 -8z m621 -22 c0 -15 -3 -38 -7 -51 -6 -22 -8 -21 -29 20 -29 55 -29
57 -1 61 31 6 37 1 37 -30z m-59 -9 c13 -36 13 -36 -38 -7 -67 38 -68 40 -17
35 37 -2 47 -8 55 -28z m-437 -32 c11 -18 54 -191 48 -191 -4 1 -18 7 -31 14
-19 11 -30 32 -46 92 -12 44 -25 89 -29 102 -8 23 -7 23 22 8 17 -9 33 -20 36
-25z m539 -55 l-6 -59 -18 24 c-20 26 -23 48 -13 99 7 30 7 31 24 13 14 -14
17 -29 13 -77z m1857 52 c-17 -39 -23 -44 -71 -55 -31 -7 -63 -22 -80 -39 -35
-33 -42 -29 -29 17 6 18 10 48 10 66 0 39 27 51 122 52 l67 1 -19 -42z m-2635
-24 c42 -37 46 -44 25 -40 -14 3 -42 8 -62 11 -29 4 -42 13 -53 35 -8 16 -15
33 -15 38 0 21 60 -4 105 -44z m2455 19 c0 -10 -6 -41 -14 -70 -8 -28 -12 -53
-10 -56 2 -2 -15 -21 -38 -43 l-41 -39 7 34 c3 18 6 59 6 90 0 55 1 58 38 79
45 26 52 27 52 5z m-2160 -13 c16 -12 36 -40 46 -68 9 -26 28 -73 42 -105 14
-31 22 -60 19 -63 -10 -11 -97 56 -97 75 0 16 -30 124 -47 167 -7 19 4 17 37
-6z m549 -13 c8 -10 11 -44 9 -99 l-3 -83 -23 32 c-21 30 -44 142 -34 171 4
14 31 2 51 -21z m-450 -51 c30 -23 48 -47 61 -82 10 -27 30 -78 45 -112 15
-35 24 -66 21 -69 -12 -12 -85 62 -99 100 -8 23 -30 77 -50 120 -20 42 -33 77
-29 77 4 0 27 -15 51 -34z m527 -105 c-4 -42 -12 -94 -18 -116 l-11 -40 -12
35 c-6 19 -12 87 -13 150 l-2 115 31 -34 c31 -34 31 -35 25 -110z m1434 122
c0 -10 -5 -51 -10 -91 -9 -67 -13 -77 -57 -127 -26 -29 -49 -53 -50 -51 -2 1
4 34 12 72 8 38 15 92 15 119 0 47 2 51 38 72 45 27 52 28 52 6z m244 -15 c-4
-13 -15 -41 -24 -64 l-18 -41 -68 -6 c-38 -3 -78 -9 -89 -13 -15 -5 -11 2 13
28 26 28 45 37 85 44 l52 8 -40 5 -39 6 28 19 c29 18 69 33 94 35 9 1 11 -6 6
-21z m-2521 -13 c18 -7 43 -23 57 -35 l25 -22 -55 7 c-30 3 -73 8 -95 11 -23
2 -8 -4 35 -15 41 -11 94 -20 116 -21 26 0 51 -7 65 -20 l24 -19 -96 -1 c-148
0 -155 2 -189 72 -17 33 -30 62 -30 65 0 10 111 -7 143 -22z m435 -85 c49 -44
72 -102 72 -183 0 -49 0 -50 -20 -32 -11 10 -20 30 -20 45 0 14 -20 68 -45
118 -24 51 -41 92 -37 92 4 -1 27 -18 50 -40z m447 -86 c7 -60 5 -69 -26 -130
l-34 -66 -3 36 c-2 21 4 56 12 79 8 23 18 78 22 122 8 90 17 77 29 -41z m625
-50 c16 -47 26 -84 22 -82 -4 2 -22 12 -39 23 -33 20 -33 20 -33 100 1 93 7
88 50 -41z m47 82 c2 -2 3 -36 1 -76 l-3 -72 -36 90 -35 91 35 -15 c19 -8 37
-16 38 -18z m913 29 c0 -2 -8 -20 -17 -40 -13 -27 -23 -35 -43 -35 -25 0 -155
-31 -196 -47 -12 -5 -6 8 19 40 37 43 72 62 152 80 28 6 85 8 85 2z m-2428
-26 c63 -6 102 -6 124 1 28 10 37 7 78 -18 l45 -29 -67 -7 c-160 -15 -259 1
-282 45 -13 23 -13 32 0 24 6 -3 51 -11 102 -16z m507 -76 c31 -57 38 -107 22
-162 l-7 -24 -19 29 c-12 19 -18 43 -16 74 1 25 -5 68 -13 95 -19 59 -18 58
-7 50 5 -3 23 -31 40 -62z m198 7 c29 0 32 -3 38 -41 4 -22 5 -42 3 -44 -2 -2
-40 1 -86 7 l-82 11 -35 55 c-19 31 -35 59 -35 62 0 4 37 -6 83 -22 45 -15 96
-28 114 -28z m853 -67 c-1 -98 -3 -124 -12 -109 -16 29 -18 236 -1 236 10 0
13 -29 13 -127z m64 60 c9 -43 20 -373 12 -373 -4 0 -19 28 -34 63 -26 59 -27
68 -24 210 3 139 4 147 21 137 10 -5 21 -22 25 -37z m-1490 7 c151 0 152 0
185 -27 l33 -28 -173 1 -173 0 -40 37 c-38 34 -39 36 -13 27 16 -6 97 -10 181
-10z m2250 -2 c-4 -7 -20 -32 -36 -55 -29 -43 -29 -43 -91 -43 -34 0 -89 -7
-122 -14 -33 -8 -61 -14 -62 -13 -1 1 11 16 27 33 44 50 309 135 284 92z
m-1524 -89 c-7 -15 -19 -34 -28 -41 -14 -11 -15 -10 -7 7 4 11 15 41 24 67 14
39 17 43 19 21 2 -14 -2 -38 -8 -54z m830 -16 c22 -58 25 -124 13 -283 -6 -91
-6 -92 -24 -69 -14 19 -17 46 -18 159 -1 74 -6 164 -11 200 -5 36 -10 70 -9
75 0 20 29 -30 49 -82z m-1291 12 l23 -23 -49 -11 c-27 -7 -96 -13 -154 -14
l-104 -2 -44 35 -43 35 33 6 c19 3 97 4 174 1 128 -4 142 -6 164 -27z m1073
-15 c29 -19 42 -38 57 -82 11 -32 17 -58 15 -58 -13 0 -114 86 -114 96 0 6 -3
26 -7 44 -7 36 -5 36 49 0z m-724 4 c2 -1 1 -16 -3 -33 -8 -39 -28 -40 -83 -4
-64 42 -61 51 16 45 37 -2 69 -6 70 -8z m-290 -55 c7 -12 12 -23 10 -25 -3 -2
-43 -15 -90 -29 -95 -27 -101 -26 -194 27 l-42 23 97 2 c53 2 110 7 126 12 50
16 79 13 93 -10z m37 -49 c14 -22 -62 -44 -144 -41 -48 1 -35 9 51 31 89 23
86 22 93 10z m1060 -85 c21 -22 48 -75 42 -81 -6 -6 -147 95 -147 105 0 5 -3
23 -7 42 l-6 33 49 -39 c27 -22 58 -49 69 -60z m201 42 c13 -25 15 -47 10
-111 -14 -166 -18 -187 -33 -175 -10 9 -13 45 -11 169 2 87 6 156 11 153 4 -2
14 -18 23 -36z m-1704 -39 l22 -22 -31 -9 c-26 -8 -38 -5 -67 13 -20 12 -36
26 -36 31 0 5 20 9 45 9 33 0 51 -6 67 -22z m-102 -19 c35 -35 35 -34 -1 -42
-19 -5 -36 0 -59 16 -40 26 -48 44 -23 50 39 10 53 6 83 -24z m2460 26 c0 -11
-34 -61 -54 -78 -12 -10 -15 -16 -7 -12 10 6 12 1 6 -26 -4 -19 -10 -36 -14
-39 -3 -3 -7 -17 -8 -31 -1 -14 -12 -53 -25 -85 -26 -66 -27 -66 -175 -76
l-72 -5 22 28 c13 18 30 29 46 30 14 0 60 6 101 13 l75 14 -89 -6 c-95 -6
-110 5 -38 29 48 15 129 56 136 68 4 5 -20 -3 -51 -19 -32 -15 -69 -31 -82
-35 l-25 -7 25 29 c13 17 44 42 69 56 25 14 54 33 65 42 11 9 3 7 -18 -5 -21
-12 -40 -21 -42 -18 -5 5 110 125 127 131 18 7 28 8 28 2z m-2275 -26 c7 -7 0
-8 -20 -3 -16 3 -34 11 -40 17 -7 6 0 7 20 3 17 -4 35 -12 40 -17z m-246 -63
c-12 -13 -74 2 -93 23 -17 19 -16 20 10 34 26 14 29 13 59 -17 18 -17 29 -35
24 -40z m2391 70 c0 -2 -16 -27 -35 -56 -19 -29 -35 -57 -35 -64 0 -6 -19 -31
-41 -56 -49 -54 -46 -37 11 87 37 80 39 82 93 92 4 0 7 -1 7 -3z m69 1 c-2 -2
-28 -26 -58 -53 -30 -27 -51 -42 -46 -34 43 75 56 90 82 90 14 0 24 -1 22 -3z
m-794 -72 c44 -30 82 -65 103 -97 19 -27 32 -51 30 -53 -2 -2 -40 17 -83 44
-65 39 -85 57 -107 97 -28 49 -34 69 -20 60 4 -2 38 -25 77 -51z m645 50 c0
-2 -15 -33 -34 -67 -35 -65 -62 -135 -58 -154 1 -6 -10 -21 -24 -35 l-27 -24
8 60 c4 32 15 87 26 120 16 51 25 64 56 83 37 21 53 26 53 17z m-2409 -39 c47
-40 8 -51 -51 -15 -32 20 -33 23 -15 30 31 12 35 11 66 -15z m2013 -210 c6
-58 6 -58 -12 -35 -15 21 -17 41 -13 149 l5 125 7 -90 c4 -49 10 -116 13 -149z
m-1731 169 c-46 -30 -85 -55 -88 -55 -3 0 11 21 30 46 19 25 35 50 35 55 0 5
24 9 52 9 l53 0 -82 -55z m-428 33 c6 0 19 3 30 7 14 4 28 -2 44 -19 23 -25
23 -26 5 -26 -11 0 -29 7 -40 15 -25 19 -40 19 -24 1 10 -13 2 -12 -47 1 -77
21 -93 37 -28 27 28 -4 55 -7 60 -6z m368 -18 c-32 -55 -87 -100 -129 -107
l-39 -6 48 37 c26 20 47 41 47 45 0 17 50 61 70 61 21 0 21 -1 3 -30z m457 21
c0 -18 -35 -21 -75 -6 l-40 14 58 1 c31 0 57 -4 57 -9z m-99 -18 c37 -14 40
-18 25 -29 -14 -9 -27 -9 -67 4 -45 15 -48 18 -33 29 23 16 25 16 75 -4z
m-452 -29 c-18 -20 -51 -49 -72 -66 -34 -27 -42 -30 -85 -23 l-47 7 40 20 c22
11 50 30 63 42 20 18 99 53 126 55 6 1 -6 -15 -25 -35z m2150 -34 c-11 -35
-22 -90 -26 -123 -4 -43 -11 -62 -27 -72 -11 -8 -24 -15 -28 -15 -29 0 29 209
70 252 14 15 27 27 28 25 2 -2 -6 -32 -17 -67z m-1539 29 c-26 -35 -35 -33
-21 5 6 14 18 26 26 26 14 0 13 -5 -5 -31z m-889 -7 c-13 -2 -31 3 -39 12 -14
14 -12 14 24 3 33 -10 35 -13 15 -15z m854 11 c-4 -10 -11 -32 -16 -49 -8 -27
-45 -64 -64 -64 -6 0 42 98 57 118 15 18 31 15 23 -5z m-161 -15 c37 -20 1
-29 -59 -15 -53 12 -57 15 -40 25 20 12 65 7 99 -10z m-535 -5 c-8 -9 -33 -25
-56 -35 -35 -15 -47 -17 -65 -7 -56 29 -54 34 18 45 38 7 80 12 93 13 21 1 22
-1 10 -16z m625 -30 c-26 -60 -43 -81 -75 -85 l-29 -5 23 26 c14 14 33 40 43
56 35 56 60 62 38 8z m-130 0 c11 -7 -14 -23 -36 -23 -29 0 -69 19 -63 31 7
10 78 4 99 -8z m1694 -58 c-11 -33 -23 -80 -27 -105 -5 -37 -10 -46 -29 -48
-19 -3 -22 1 -22 33 0 20 7 50 16 68 19 36 76 118 80 114 1 -1 -7 -29 -18 -62z
m-1627 38 c-15 -28 -68 -76 -80 -72 -13 5 62 89 78 89 8 0 9 -5 2 -17z m1323
-64 c36 -16 76 -54 76 -73 0 -2 -24 2 -52 9 -41 11 -62 24 -96 61 -67 73 -73
93 -18 54 26 -17 66 -40 90 -51z m-1468 56 c16 -12 17 -14 2 -15 -23 0 -48 11
-48 21 0 14 24 11 46 -6z m-36 -25 c0 -4 -12 -11 -26 -14 -15 -4 -24 -9 -21
-12 3 -3 22 -1 42 5 31 8 35 8 24 -5 -7 -9 -30 -14 -62 -14 l-51 0 34 29 c31
26 60 31 60 11z m100 3 c0 -15 -35 -43 -54 -43 -19 0 -18 3 9 25 30 25 45 31
45 18z m1515 -144 c14 -14 -16 -10 -50 6 l-30 14 35 -6 c19 -3 39 -10 45 -14z"/>
<path d="M3565 4125 c-129 -35 -138 -54 -16 -35 109 18 150 2 248 -97 72 -73
103 -82 64 -19 -28 44 -100 110 -148 134 -56 28 -92 33 -148 17z"/>
<path d="M3367 4088 c-20 -16 -37 -60 -37 -99 0 -28 -2 -29 -45 -29 -25 0 -45
-4 -45 -10 0 -5 17 -10 38 -10 l37 0 -2 -147 -1 -148 9 114 c16 195 25 207
113 147 29 -20 76 -43 104 -51 58 -18 80 -43 106 -122 20 -59 73 -113 111
-113 33 0 31 8 -7 40 l-32 27 41 64 c40 60 68 119 58 119 -2 0 -12 -15 -21
-32 -20 -39 -86 -127 -96 -128 -3 0 -14 23 -23 51 -21 62 -66 115 -105 124
l-30 7 21 40 c27 53 19 58 -16 8 -30 -43 -45 -49 -66 -24 -20 24 -65 44 -100
44 -32 0 -32 0 -27 45 6 51 22 75 49 75 11 0 19 5 19 10 0 14 -33 12 -53 -2z"/>
<path d="M2925 4017 c-89 -44 -91 -45 -137 -123 -46 -77 -54 -107 -48 -169 3
-28 3 -28 9 8 l6 38 63 -32 c34 -18 82 -49 105 -68 l42 -36 -30 38 c-35 44
-84 79 -142 102 -24 10 -43 20 -43 24 2 37 99 134 159 159 l51 21 15 -36 c17
-41 31 -40 15 1 -16 42 -12 53 20 64 35 13 71 4 139 -35 41 -23 53 -25 63 -15
24 25 -74 87 -154 98 -37 5 -56 -1 -133 -39z"/>
<path d="M2746 3638 c-2 -13 -12 -60 -21 -105 -14 -69 -15 -89 -4 -120 27 -82
69 -118 156 -134 88 -15 177 -47 220 -78 21 -15 65 -64 98 -109 56 -77 85
-100 85 -69 0 21 -93 149 -136 186 -51 45 -120 76 -228 101 -99 23 -137 45
-156 90 -12 30 -11 62 6 208 5 35 3 52 -5 52 -6 0 -13 -10 -15 -22z"/>
<path d="M1504 3611 c-63 -29 -122 -87 -182 -181 -31 -47 -72 -108 -93 -136
-63 -83 -83 -169 -66 -276 8 -45 7 -48 -13 -48 -34 0 -75 -26 -103 -67 -14
-21 -64 -72 -109 -114 -94 -86 -135 -154 -147 -244 -17 -123 22 -231 119 -330
35 -36 68 -82 83 -116 24 -55 51 -79 70 -60 5 5 1 20 -11 38 -12 15 -22 41
-24 58 -3 29 -2 30 54 37 31 4 72 12 90 17 29 9 27 10 -19 5 -115 -13 -141 -8
-188 31 -25 20 -57 52 -71 70 -32 42 -64 125 -64 165 l0 30 63 1 c71 1 52 17
-22 18 l-44 1 6 45 c4 24 13 60 21 80 15 34 16 35 63 29 26 -3 79 -12 116 -21
37 -8 70 -13 73 -11 6 7 -100 36 -159 44 -26 4 -50 11 -53 16 -3 5 38 55 93
111 109 114 113 115 192 71 24 -13 46 -22 48 -20 7 6 -99 66 -117 66 -25 1 29
40 55 40 12 0 30 -9 40 -20 30 -33 28 -15 -4 36 -25 39 -31 58 -31 106 0 32 3
58 6 58 3 0 29 -23 59 -51 55 -54 131 -109 148 -109 6 0 -9 13 -34 29 -60 38
-159 144 -159 170 0 28 14 27 29 -2 7 -13 21 -28 31 -35 15 -9 13 -1 -10 35
-17 26 -28 53 -26 59 7 18 168 229 173 227 2 -1 27 -48 54 -104 27 -56 52 -99
55 -96 3 3 -10 36 -29 73 -19 38 -40 88 -47 112 -12 40 -12 44 10 67 l24 25
29 -55 c38 -70 45 -65 12 8 l-25 57 33 17 c21 11 55 17 97 18 57 0 74 -5 139
-40 69 -38 75 -44 109 -110 19 -38 41 -90 48 -115 7 -26 13 -36 13 -23 1 12
-12 57 -27 100 l-29 78 91 0 c74 0 91 3 91 15 0 12 -18 16 -80 20 -82 6 -87 7
-212 85 -63 39 -174 47 -239 16z"/>
<path d="M2079 3454 c39 -49 22 -100 -66 -198 -77 -85 -94 -184 -47 -272 15
-27 35 -65 45 -84 10 -19 20 -57 23 -85 l6 -50 -21 58 c-22 61 -39 73 -20 15
15 -47 43 -219 37 -225 -3 -3 -7 0 -10 8 -48 162 -105 284 -206 446 -58 91
-168 243 -176 243 -7 0 4 -18 57 -90 145 -199 301 -512 298 -597 l-1 -28 -11
30 c-47 124 -238 457 -253 442 -3 -3 12 -32 33 -64 63 -93 99 -161 153 -288
27 -66 50 -121 50 -123 0 -1 -43 46 -95 106 -92 107 -162 170 -295 266 -62 46
-116 79 -95 59 6 -6 55 -43 110 -83 125 -91 177 -140 276 -262 67 -84 76 -99
62 -107 -13 -7 -28 1 -68 36 -71 65 -255 186 -255 169 0 -2 36 -30 81 -61 44
-31 79 -58 77 -61 -2 -2 -22 1 -44 7 -25 7 -70 9 -124 4 -199 -18 -226 -10
-255 72 -38 110 -51 136 -73 151 l-24 16 25 -38 c14 -20 31 -61 37 -91 14 -66
44 -112 90 -137 31 -17 47 -19 125 -13 117 10 168 7 217 -10 40 -13 138 -75
138 -86 0 -3 -24 2 -52 11 -61 20 -203 36 -194 22 3 -5 34 -12 68 -15 75 -7
158 -34 158 -51 0 -7 -6 -20 -12 -29 -12 -15 -19 -15 -78 -2 -80 18 -228 18
-380 1 -107 -13 -110 -14 -48 -15 37 0 123 4 190 10 109 9 133 8 208 -8 112
-25 116 -45 10 -54 -41 -4 -106 -14 -145 -23 -81 -19 -228 -66 -223 -72 2 -2
101 16 218 40 118 23 216 40 218 36 1 -4 -2 -18 -7 -32 -8 -22 -17 -26 -68
-30 -82 -8 -246 -65 -393 -138 -151 -75 -112 -71 50 5 140 65 275 107 354 109
75 1 83 -17 15 -32 -71 -17 -138 -52 -212 -112 -34 -28 -91 -65 -127 -83 -63
-31 -69 -32 -197 -32 -73 0 -133 -3 -133 -7 0 -15 112 -30 191 -26 112 7 175
33 287 118 92 69 138 90 240 105 53 8 54 -2 5 -53 -44 -46 -274 -166 -350
-182 -26 -6 -70 -26 -98 -45 -27 -18 -77 -40 -110 -49 -80 -20 -115 -58 -115
-122 0 -40 25 -112 35 -102 3 2 0 21 -6 42 -24 86 14 140 103 152 33 5 69 19
106 44 32 21 81 43 109 49 56 11 276 117 329 158 36 27 98 139 89 161 -5 12
-8 12 -25 -3 -19 -18 -20 -17 -20 8 0 15 -4 27 -10 27 -5 0 -10 7 -10 15 0 8
6 14 13 12 8 -1 12 12 12 41 0 27 4 42 13 42 7 0 16 8 20 18 4 11 18 17 37 17
20 0 31 5 33 18 3 13 -3 17 -22 17 -28 0 -34 12 -13 27 16 14 46 8 66 -11 13
-14 13 -20 3 -37 -14 -22 -8 -39 13 -39 16 0 9 -30 -9 -42 -8 -5 -7 -14 2 -28
11 -18 10 -20 -8 -20 -11 0 -20 -7 -20 -15 0 -8 9 -15 20 -15 11 0 20 5 20 10
0 6 10 10 21 10 19 0 21 4 15 31 -5 29 -4 31 17 24 12 -4 39 -8 60 -10 45 -4
62 20 31 41 -10 7 -27 21 -36 30 -9 9 -24 14 -33 11 -8 -4 -15 -2 -15 3 0 6
-7 10 -16 10 -12 0 -15 7 -11 26 3 20 -1 28 -20 37 -24 11 -24 11 -3 19 12 4
18 12 15 18 -11 18 27 11 41 -7 17 -24 27 -11 30 40 6 106 53 356 89 476 35
116 33 181 -6 260 -23 46 -45 72 -85 101 -62 47 -73 50 -45 14z m109 -119 c35
-68 33 -142 -6 -256 -17 -47 -41 -147 -53 -222 -13 -75 -27 -137 -31 -137 -4
0 -8 3 -8 8 0 4 -7 46 -15 94 -11 70 -21 97 -50 139 -19 28 -38 63 -41 76 -11
44 2 121 27 156 85 121 101 149 106 186 6 41 6 41 25 24 11 -10 32 -40 46 -68z
m-100 -737 c-2 -4 -8 -4 -14 0 -7 4 -15 34 -18 67 l-6 60 20 -59 c11 -33 19
-63 18 -68z m12 -172 c0 -11 -19 -15 -25 -6 -3 5 1 10 9 10 9 0 16 -2 16 -4z"/>
<path d="M2084 2536 c-7 -19 12 -46 32 -46 20 0 17 24 -6 45 -18 16 -20 16
-26 1z"/>
<path d="M2146 2508 c-9 -34 -8 -38 9 -38 8 0 15 6 15 14 0 8 5 16 12 18 15 5
1 28 -16 28 -8 0 -16 -10 -20 -22z"/>
<path d="M1905 2399 c-10 -16 6 -31 28 -25 12 3 27 0 34 -5 6 -6 17 -8 23 -4
12 7 14 35 3 36 -5 0 -25 2 -45 4 -21 2 -40 0 -43 -6z"/>
<path d="M1895 2350 c-9 -15 27 -65 46 -65 13 0 37 50 28 59 -13 12 -68 16
-74 6z"/>
<path d="M2089 2333 c-6 -16 -5 -30 4 -44 14 -23 43 -21 39 3 -1 10 4 15 15
14 12 -1 19 7 21 26 3 24 0 26 -33 25 -29 -1 -39 -6 -46 -24z"/>
<path d="M1661 1090 c0 -8 4 -22 9 -30 12 -18 12 -2 0 25 -6 13 -9 15 -9 5z"/>
<path d="M3827 162 c-31 -32 -33 -39 -12 -39 8 0 15 8 15 17 0 16 18 40 30 40
3 0 6 -10 7 -21 1 -12 7 -27 14 -33 9 -8 10 -5 5 14 -3 14 -6 31 -6 38 0 21
-25 13 -53 -16z"/>
<path d="M3846 133 c-6 -14 -5 -15 5 -6 7 7 10 15 7 18 -3 3 -9 -2 -12 -12z"/>
</g>
</svg>
